# xmcd
#
# Track frame offsets:
#	150
#	8962
#	17293
#	28250
#	41348
#	52749
#	62594
#	72405
#	85810
#	98302
#	108766
#	119892
#
# Disc length: 1774 seconds
#
# Revision: 3
# Processed by: cddbd v1.4PL0 Copyright (c) Steve Scherf et al.
# Submitted via: audiograbber 1.80.04
#
DISCID=8a06ec0c
DTITLE=Rip Carson - Box Set - The Singles Collection
DYEAR=2002
DGENRE=Rock and Roll
TTITLE0=Before I Go
TTITLE1=Who's To Blame
TTITLE2=Answer The Line
TTITLE3=Don't Ya Lie To Me
TTITLE4=As Long As I Live
TTITLE5=Come On
TTITLE6=Just Can't Find The Words
TTITLE7=My Way To Canaan
TTITLE8=You Took My Name
TTITLE9=Can't Get Loose 'A You Baby
TTITLE10=One Heart's Left
TTITLE11=Nobody's Woman
EXTD=
EXTT0=
EXTT1=
EXTT2=
EXTT3=
EXTT4=
EXTT5=
EXTT6=
EXTT7=
EXTT8=
EXTT9=
EXTT10=
EXTT11=
PLAYORDER=
